<svg viewBox="0 0 120 120" width="120" height="120" xmlns="http://www.w3.org/2000/svg" role="img">
  <title>Materiały dodatkowe</title>
  <circle cx="60" cy="60" r="54" fill="#EDE8E0"/>
  <rect x="28" y="38" width="38" height="50" rx="4" fill="#C9A84C"/>
  <rect x="28" y="38" width="6" height="50" rx="2" fill="#B8922E"/>
  <line x1="34" y1="38" x2="34" y2="88" stroke="#B8922E" stroke-width="0.5"/>
  <rect x="38" y="47" width="20" height="3" rx="1.5" fill="#B8922E" opacity="0.5"/>
  <rect x="38" y="54" width="16" height="3" rx="1.5" fill="#B8922E" opacity="0.5"/>
  <rect x="38" y="61" width="18" height="3" rx="1.5" fill="#B8922E" opacity="0.5"/>
  <rect x="44" y="32" width="40" height="54" rx="4" fill="#1C2B3A"/>
  <rect x="44" y="32" width="7" height="54" rx="2" fill="#152030"/>
  <line x1="51" y1="32" x2="51" y2="86" stroke="#152030" stroke-width="0.5"/>
  <rect x="56" y="42" width="22" height="3" rx="1.5" fill="#C9A84C" opacity="0.8"/>
  <rect x="56" y="49" width="18" height="3" rx="1.5" fill="#8899AA" opacity="0.6"/>
  <rect x="56" y="56" width="20" height="3" rx="1.5" fill="#8899AA" opacity="0.6"/>
  <rect x="56" y="63" width="15" height="3" rx="1.5" fill="#8899AA" opacity="0.6"/>
  <rect x="68" y="28" width="16" height="20" rx="2" fill="#F5F0E8"/>
  <rect x="71" y="33" width="10" height="2" rx="1" fill="#AD6B68" opacity="0.7"/>
  <rect x="71" y="37" width="7" height="2" rx="1" fill="#AD6B68" opacity="0.5"/>
</svg>
