<svg viewBox="0 0 120 120" width="120" height="120" xmlns="http://www.w3.org/2000/svg" role="img">
  <title>Folder grupy</title>
  <circle cx="60" cy="60" r="54" fill="#E8EDF2"/>
  <rect x="22" y="52" width="76" height="50" rx="5" fill="#8899AA" opacity="0.2"/>
  <rect x="22" y="50" width="76" height="48" rx="5" fill="#1C2B3A"/>
  <path d="M22 50 L22 44 Q22 40 26 40 L46 40 Q50 40 52 44 L55 50 Z" fill="#1C2B3A"/>
  <path d="M26 40 Q30 40 32 44 L35 50 L22 50 L22 44 Q22 40 26 40 Z" fill="#2A3F54"/>
  <rect x="32" y="55" width="30" height="36" rx="3" fill="#F5F0E8" transform="rotate(-6 47 73)"/>
  <rect x="32" y="55" width="30" height="36" rx="3" fill="#FBF8F2" transform="rotate(-2 47 73)"/>
  <rect x="37" y="62" width="22" height="2.5" rx="1" fill="#AD6B68" opacity="0.7" transform="rotate(-2 48 63)"/>
  <rect x="37" y="68" width="18" height="2.5" rx="1" fill="#1C2B3A" opacity="0.3" transform="rotate(-2 46 69)"/>
  <rect x="37" y="74" width="20" height="2.5" rx="1" fill="#1C2B3A" opacity="0.3" transform="rotate(-2 47 75)"/>
  <rect x="54" y="48" width="14" height="6" rx="3" fill="#C9A84C"/>
  <rect x="58" y="44" width="6" height="6" rx="2" fill="#C9A84C"/>
  <rect x="60" y="44" width="2" height="8" rx="1" fill="#B8922E"/>
</svg>
